<svg id="Layer_1" data-name="Layer 1" xmlns="http://www.w3.org/2000/svg" viewBox="0 0 647.23 751.03"><path d="M963.73,165h268.5a89,89,0,0,1,17.85,1.76c21.43,4.37,32.44,15.85,35.82,37.33a108.79,108.79,0,0,1,1.28,16.92q0,262,0,524a151.79,151.79,0,0,1-1.45,19.42c-1.73,13.46-9.11,23.13-21.2,28.83-26.61,12.55-54.07,23.12-81.15,34.56Q1083.76,869.87,984,911.68c-13.83,5.83-27.3,5.73-41.11-.08Q807.85,854.72,672.73,798a89.4,89.4,0,0,1-15.9-8.22c-9.54-6.48-14.22-15.61-15.56-26.67A148.79,148.79,0,0,1,640,745.23q.07-262.5,0-525a91.46,91.46,0,0,1,1.68-17.87c4.41-22.13,16.76-33.56,39.13-36.34A137,137,0,0,1,697.73,165Q830.73,165,963.73,165Zm99.74,243.33c0,18.33-.1,36.67,0,55,.12,16.32-.71,32.66.51,49,1.76,23.33,15.4,38.39,38.37,41.79,15.72,2.33,31.65,1.86,47.37.49,18.88-1.65,33-10.89,39-29.89a64.11,64.11,0,0,0,3-19.17c.13-22.33,0-44.66.14-67,0-3.49-1.18-4.15-4.28-4.11-11.33.15-22.67.25-34,0-4.12-.1-5.33,1-5.28,5.2.23,20,.1,40,.11,60,0,4.05-.38,8-2.87,11.42-5.82,8-29.95,7.66-35.47-.48-2.56-3.78-2.61-8.16-2.61-12.51q0-89.25,0-178.5A42.23,42.23,0,0,1,1108,313c1-6.27,4.27-9.64,10.41-11.23,3.8-1,7.62-.59,11.44-.61,13.14-.06,18,4.86,18,18.14,0,17,.08,34-.06,51,0,3,.71,4,3.85,3.91,11.83-.19,23.67-.23,35.5,0,3.53.07,4-1.27,4-4.29-.17-8.83.08-17.66-.1-26.49-.27-14,.91-28-.94-41.94-2.72-20.53-14.74-34.06-35-37.57a159.81,159.81,0,0,0-56.16.17c-16.38,3-27.39,12.89-32.43,29a70.92,70.92,0,0,0-3,21.17Q1063.44,361.34,1063.47,408.33ZM854.83,409c0,46.49.06,93-.09,139.47,0,3.79,1,4.7,4.66,4.61,11-.26,22-.34,33,0,5,.17,6.65-.87,6.59-6.31-.3-31.16-.07-62.32-.24-93.48,0-4,1.1-5,5-4.9,9.65.12,19.33.09,29-.5,21.54-1.31,35.83-12.34,41.55-31.4a56,56,0,0,0,2.58-15.71c.12-29.66.36-59.32-.1-89-.2-12.32-3.52-24.06-12.57-33.31-10.42-10.64-23.7-13.57-37.88-13.66-21.83-.13-43.66.11-65.49-.15-4.62-.06-6.07.8-6,5.81C854.93,316.69,854.83,362.85,854.83,409Zm-119.67-.25q0,69.72,0,139.46c0,2.8-.36,4.92,3.88,4.89,30.33-.19,60.65-.15,91,0,3,0,4-.69,3.93-3.85q-.3-16,0-32c.07-3.44-.8-4.54-4.37-4.49-15.16.2-30.33,0-45.49.15-3.3,0-4.63-.62-4.61-4.31q.22-39,0-78c0-3.43.87-4.56,4.43-4.51,14.32.2,28.65,0,43,.15,3.11,0,4.3-.58,4.22-4-.24-10.82-.22-21.66,0-32.49.06-3.17-.89-3.84-3.9-3.81-14.5.16-29,0-43.49.14-3.07,0-4.28-.55-4.26-4q.24-36.49,0-73c0-3.67,1.19-4.34,4.53-4.3,15,.17,30,0,45,.15,3.31,0,4.18-.92,4.12-4.17-.2-10.5-.3-21,0-31.49.13-4-1.25-4.53-4.77-4.51-29.32.14-58.65.2-88-.06-4.68,0-5.33,1.46-5.31,5.61C735.21,316.45,735.16,362.61,735.16,408.76Zm261.31-.29q0,70-.08,139.94c0,3.7.83,4.79,4.65,4.7,11.82-.28,23.65-.25,35.48,0,3.46.07,4.07-1.13,4.07-4.24q-.1-139.94,0-279.88c0-3.18-.72-4.3-4.13-4.24-11.65.22-23.32.3-35,0-4.33-.12-5.11,1.29-5.1,5.32C996.52,316.18,996.47,362.32,996.47,408.47Zm3.62,251.42c.2,2.41.37,3.49.37,4.57,0,13.82.11,27.65-.06,41.47,0,3.24.81,4.35,4.15,4.15a124.78,124.78,0,0,1,15,0c3.55.22,4.42-.93,4.4-4.41q-.24-39.23,0-78.45c0-3.43-.79-4.71-4.38-4.46-6.77.47-14.74-2.28-20,1-5.08,3.16-7.45,10.68-11,16.3-3.38,5.37-6.73,10.76-10.43,16.68-6.54-10.66-12.61-20.56-18.7-30.45-1.1-1.79-1.91-3.66-4.77-3.55-6.32.25-12.66.16-19,0-2.35,0-3.19.69-3.19,3.11q.11,40.49,0,81c0,2.86,1.13,3.27,3.55,3.21,5.33-.14,10.67-.2,16,0,2.86.12,3.66-.82,3.64-3.64-.13-13.49-.08-27,0-40.47,0-1.55-.42-3.21.77-5.24,6.29,9.7,12.32,19,18.33,28.26,3.26,5,3.23,5,6.39.19Zm87.76,154,0-.66H839.23c1.65.69,2.33,1,3,1.27,34.39,11.84,68.94,23.22,103.07,35.75,11.47,4.2,21.41,4.07,32.87,0C1014.55,837.52,1051.27,825.89,1087.85,813.84ZM818.53,679.17c0-5.33-.19-10.67.07-16,.16-3.39-1.09-4.2-4.29-4.09-7.15.22-14.32,0-21.48.1-4.45.08-10.38-1.94-13,.79-2.78,2.95-.52,8.87-.89,13.47-.21,2.53.55,3.61,3.28,3.45,3.66-.22,7.33-.09,11,0,1.22,0,2.49-.38,3,1.67,1.61,7.13-.41,10.65-7.52,12.19a38.16,38.16,0,0,1-5.95.67c-12.42.68-22.61-8-24.54-20.78-2-13.14,5.59-25.26,17.68-28,8.53-1.92,16.2.55,22.92,5.76,2.51,1.94,3.69,1.66,5.45-.77a76.44,76.44,0,0,1,8.58-10.38c3.29-3.2,1.77-4.69-1.12-6.73-12.43-8.77-26.27-11.31-40.86-8.41C753.32,625.58,741,635.87,736,653.32s-1.74,33.41,11.92,46.16c16.34,15.24,43.28,16.44,64.07,3.58,4.7-2.91,7.45-6,6.63-11.91C818.09,687.23,818.53,683.17,818.53,679.17ZM1075.69,710c10.49,0,21-.08,31.48,0,2.71,0,3.91-.54,3.74-3.53a119.76,119.76,0,0,1,0-13c.15-2.88-.86-3.64-3.66-3.61-10.82.15-21.65.06-32.48.06-11.32,0-11.19,0-10.85-11.29.09-2.86,1.18-3.23,3.54-3.21,7.83.1,15.66.18,23.49,0,4.75-.12,11.23,2.22,13.77-1.07,2.37-3.06.57-9.25.87-14,.18-3-1-3.63-3.74-3.59-9.32.15-18.65.06-28,.06-10.09,0-9.93,0-9.95-10.29,0-3.23,1-3.8,4-3.76,12.65.15,25.32-.07,38,.15,3.57.06,4.63-1,4.38-4.48a99.76,99.76,0,0,1,0-12c.13-2.73-.6-3.73-3.54-3.71q-31,.18-62,0c-2.87,0-3.64.87-3.63,3.68q.15,40,0,80c0,2.82.73,3.7,3.61,3.66C1055,709.91,1065.36,710,1075.69,710Zm-152.94,0a11.74,11.74,0,0,0-.37-1.7q-17.5-41.77-35-83.55a3.74,3.74,0,0,0-4.14-2.63c-5.33.11-10.66.18-16,0-2.63-.1-3.74.93-4.71,3.27-7.25,17.47-14.67,34.87-22,52.31-4.47,10.64-8.89,21.31-13.48,32.33,3.76,0,6.91,0,10.07,0,4.65-.06,10.15,1.34,13.71-.66s4-8,5.64-12.29c.92-2.38,2.07-3.38,4.7-3.27,5,.21,10,0,15,.07,5.15,0,11.28-1.5,15.14.77,3.33,2,4.09,8.31,5.9,12.75.67,1.64,1.32,2.74,3.49,2.7C908,709.91,915.29,710,922.75,710Zm234.65,1.56a55.43,55.43,0,0,0,17.52-2.6c11.1-3.8,17.75-12.64,18.21-24.25s-4.37-18.77-15.9-23.88a81.77,81.77,0,0,0-12.32-3.94c-5.13-1.35-10.37-2.34-15.22-4.62-2.33-1.1-3.76-2.84-3.61-5.44s1.88-4.13,4.22-5a14.82,14.82,0,0,1,6.89-.72,39.94,39.94,0,0,1,18.6,6.61c2.44,1.62,3.85,1.74,5.48-1a77.77,77.77,0,0,1,7.12-10.22c2.34-2.8,1.86-4.34-1.07-6.16-13.18-8.2-27.34-11.08-42.5-7.59-13.9,3.2-21.65,12.39-22.31,25.7-.59,12,5.56,20,19.7,24.7,6.44,2.16,13.16,3.44,19.65,5.48,3.69,1.16,8.41,2.24,7.67,7.57s-5.64,5.36-9.73,5.78a24,24,0,0,1-5.46-.41A38.09,38.09,0,0,1,1135.6,684c-3.24-2.52-4.95-1.75-7.07,1.14a83.08,83.08,0,0,1-7.67,9.18c-2.26,2.3-1.93,3.51.54,5.37C1132.19,707.78,1144.43,711.23,1157.4,711.56Z" transform="translate(-639.96 -164.97)" fill="#fff"/><path d="M898.83,356.3c0-16.16.11-32.33-.08-48.49,0-3.54,1-4.6,4.46-4.36,4.81.33,9.66,0,14.47.32,10.73.76,15.11,5.36,15.28,16.24.18,11.66,0,23.33,0,35,0,12.33.06,24.66,0,37-.08,12.58-5,17.43-17.68,17.49-4,0-8-.29-12,.09s-4.59-1.25-4.55-4.78C898.93,388.63,898.83,372.46,898.83,356.3Z" transform="translate(-639.96 -164.97)" fill="#fff"/><path d="M865.05,675l9.84-24.65c3.23,8.15,6.17,15.4,9,22.7.82,2.15-.91,2-2.2,2Z" transform="translate(-639.96 -164.97)" fill="#fff"/></svg>