<svg id="Layer_1" data-name="Layer 1" xmlns="http://www.w3.org/2000/svg" viewBox="0 0 1860 2498.82"><path d="M927.21,17.56c5.09,13.09-3.71,25.07-10.92,35.2C865.25,125.1,825.12,206,809.12,293c-6.26,17.85-4.88,31.15,0,32.64,99-8.7,210.79-7.7,308.31,13.13,177.45,35.73,343.3,125.51,470.76,253.88,127.1,127,216.3,291.67,252.4,467.8,40,190.7,17.65,393.69-62.39,571.31-169.71,362.68-455.81,669.46-805.88,863.92-11.3,5.25-27.57,5.46-35.31-5.77-9.11-11.77-5.35-28.52,3.66-39.22,47.23-65.89,80.19-141.63,98.11-220.6,3.44-16.38,8.16-33,6.73-49.82-5.78-7.53-15.32-5.25-23.43-5-169.92,17-344.78-13.36-498.32-88.41-164.47-79.24-304-208.78-396.3-366.24C42,1575.76-3,1407.06.15,1238.77.73,1084.33,42.87,931.15,117.08,796,289.81,464.32,561,184.47,888.47,3.68,902.19-3.95,922.49,1.71,927.21,17.56ZM878.92,889.92C777.85,903.49,684.62,962.85,628,1047.43c-38.32,58.1-61.54,127.11-61.06,197-2.85,93.59,34.45,187.36,99.12,254.77,56.5,60.85,135,100.5,217.31,111.1,83.79,11.08,171.3-8.53,242.27-54.6,72.13-45.79,127.1-118.09,151.69-200,46.17-142.15-9.17-308.69-129.59-396.51-75.63-57.55-174.8-83.11-268.83-69.27Z" transform="translate(0 -0.32)" fill="#fff"/></svg>