<svg id="svg41117" xmlns="http://www.w3.org/2000/svg" viewBox="0 0 198 152.82"><path id="path-1" d="M197.24,118c-3.87,4.88-13.34,8.36-13.34,8.36l-70.5,25.32V133l51.88-18.48c5.89-2.11,6.79-5.1,2-6.66s-13.43-1.12-19.32,1L113.4,121V101.62l2-.67a118.16,118.16,0,0,1,24-5.09c14-1.55,31.24.21,44.74,5.33C199.39,106,201.1,113.08,197.24,118ZM120.11,86.17V38.41c0-5.6-1-10.77-6.29-12.23-4-1.29-6.53,2.45-6.53,8.06V153.82L75,143.58V1c13.71,2.55,33.69,8.56,44.43,12.18,27.31,9.38,36.57,21,36.57,47.35C156,86.16,140.22,95.87,120.11,86.17ZM15.86,131c-15.62-4.4-18.22-13.57-11.1-18.85,6.58-4.87,17.77-8.54,17.77-8.54L68.77,87.19v18.74L35.5,117.84c-5.88,2.11-6.78,5.1-2,6.66s13.44,1.12,19.32-1l16-5.8v16.78l-3.18.53a104.65,104.65,0,0,1-49.73-4ZM187,138.44a7.56,7.56,0,1,1-7.55,7.56A7.56,7.56,0,0,1,187,138.44ZM180.69,146a6.28,6.28,0,0,0,6.28,6.28,6.28,6.28,0,0,0,6.28-6.28,6.28,6.28,0,0,0-12.56,0Zm8.56-4.07a2.08,2.08,0,0,1,1.24,2.07,2.24,2.24,0,0,1-.33,1.28,2.16,2.16,0,0,1-.63.61,1.51,1.51,0,0,1,.8,1.53l0,1.08a2.71,2.71,0,0,0,.08.64.46.46,0,0,0,.24.37l.11.05v.49h-1.63l0-.09a1.28,1.28,0,0,1-.11-.33A5,5,0,0,1,189,149l-.07-1.33a.93.93,0,0,0-.47-.91,2.45,2.45,0,0,0-.9-.12h-2.29v3.44h-1.46v-8.41h3.9a3.86,3.86,0,0,1,1.59.29Zm-4,3.39h2.33a2,2,0,0,0,1.1-.26,1.1,1.1,0,0,0,.36-1,1,1,0,0,0-.51-1,2,2,0,0,0-.81-.15h-2.47v2.38Z" transform="translate(-1 -1)" fill="#fff" fill-rule="evenodd"/></svg>