<svg id="Layer_1" data-name="Layer 1" xmlns="http://www.w3.org/2000/svg" viewBox="0 0 460.16 394.28"><path d="M731.3,535.63l59.31,24c12.33,5,24.64,10,37,14.84a7.88,7.88,0,0,0,5.89-.24A82.67,82.67,0,0,1,879.7,564c3.5.23,5.39-1,7.28-3.75,22.51-32.42,45.16-64.74,67.64-97.18a14.54,14.54,0,0,0,2.44-7.28c2.58-58.67,49.32-107.24,107.59-111.61,59.34-4.45,112.49,35.55,124.1,93.41,14.17,70.55-38.24,136.94-110.17,139.75a15.6,15.6,0,0,0-8.09,3c-34.52,25-68.9,50.24-103.41,75.26a13.46,13.46,0,0,0-6,9.54,87,87,0,0,1-170,8.51c-.81-3-2.09-4.71-5.12-5.89C768.82,661,751.74,654,734.59,647.14c-2.37-.94-3.68-1.9-3.67-4.89.13-34.66.09-69.32.1-104C731,537.63,731.15,537,731.3,535.63Zm421.15-75.23c-.16-43.11-35.28-78.18-78.28-78.15a78.31,78.31,0,1,0,78.28,78.15ZM819.8,681.59c9.66,26.41,49.48,40.67,79.13,29,33.38-13.14,49.41-51.59,35.49-84.82-13.21-31.51-47.88-44.2-71.62-37.1,9.48,3.9,18.82,7.4,27.87,11.52a50.78,50.78,0,0,1-38.07,94c-9.25-3.28-18.28-7.14-27.42-10.71C823.56,682.86,821.9,682.33,819.8,681.59Z" transform="translate(-730.92 -343.81)" fill="#fff"/><path d="M1074.31,397.83a62.58,62.58,0,1,1-62.4,62.65A62.48,62.48,0,0,1,1074.31,397.83Z" transform="translate(-730.92 -343.81)" fill="#fff"/></svg>